<svg xmlns="http://www.w3.org/2000/svg" viewBox="0 0 512 512">
  <path d="M468.576 256c0 18.016-11.276 33.396-27.159 39.471a42.22 42.22 0 01-15.088 2.776c-23.337 0-42.248-18.911-42.248-42.248s18.911-42.248 42.248-42.248a42.22 42.22 0 0115.088 2.776c15.883 6.077 27.159 21.457 27.159 39.473z" fill="#78b9eb"/>
  <path d="M403.857 354.869c0 18.016-11.276 33.396-27.159 39.471a42.18 42.18 0 01-15.088 2.776c-23.327 0-42.248-18.911-42.248-42.248 0-23.327 18.921-42.248 42.248-42.248a42.18 42.18 0 0115.088 2.776c15.883 6.078 27.159 21.458 27.159 39.473z" fill="#6dc82a"/>
  <path d="M403.857 152.685c0 18.016-11.276 33.396-27.159 39.471a42.18 42.18 0 01-15.088 2.776c-23.327 0-42.248-18.911-42.248-42.248 0-23.327 18.921-42.248 42.248-42.248a42.18 42.18 0 0115.088 2.776c15.883 6.077 27.159 21.457 27.159 39.473z" fill="#ff3f62"/>
  <path d="M468.576 256c0 18.016-11.276 33.396-27.159 39.471-15.883-6.076-27.159-21.456-27.159-39.471s11.276-33.396 27.159-39.471c15.883 6.075 27.159 21.455 27.159 39.471z" fill="#96c8ef"/>
  <path d="M403.857 354.869c0 18.016-11.276 33.396-27.159 39.471-15.883-6.076-27.159-21.456-27.159-39.471 0-18.005 11.276-33.396 27.159-39.471 15.883 6.076 27.159 21.456 27.159 39.471z" fill="#91dc5a"/>
  <path d="M403.857 152.685c0 18.016-11.276 33.396-27.159 39.471-15.883-6.076-27.159-21.456-27.159-39.471 0-18.005 11.276-33.396 27.159-39.471 15.883 6.075 27.159 21.455 27.159 39.471z" fill="#ff728b"/>
  <path d="M228.882 38.113v435.773c0 16.879-13.69 30.569-30.579 30.569h-44.219c-16.889 0-30.579-13.69-30.579-30.569V38.113c0-16.879 13.69-30.569 30.579-30.569h44.219c16.889 0 30.579 13.69 30.579 30.569z" fill="#3e3d42"/>
  <path d="M228.882 38.113v435.773c0 16.879-13.69 30.569-30.579 30.569h-11.025c-16.889 0-30.579-13.69-30.579-30.569V38.113c0-16.879 13.69-30.569 30.579-30.569h11.025c16.889 0 30.579 13.69 30.579 30.569z" fill="#57565c"/>
  <circle cx="176.192" cy="256" r="132.778" fill="#2d2d30"/>
  <path d="M260.787 181.595c-21.384-24.312-52.236-38.256-84.645-38.256a112.535 112.535 0 00-74.354 28.067c-22.596 19.874-36.101 47.358-38.025 77.389s7.962 59.014 27.836 81.609c21.384 24.312 52.236 38.256 84.645 38.256 27.369 0 53.775-9.967 74.354-28.067 22.596-19.874 36.101-47.358 38.025-77.389 1.924-30.031-7.962-59.014-27.836-81.609z" fill="#1d1d1f"/>
  <path d="M269.711 265.989c-4.547 42.539-36.775 75.412-76.86 82.594a93.689 93.689 0 01-26.646.935c-51.653-5.522-89.052-51.864-83.529-103.506 5.522-51.653 51.864-89.052 103.506-83.529 2.213.241 4.396.543 6.548.935 48.223 8.56 82.272 53.141 76.981 102.571z" fill="#2d2d30"/>
  <path d="M269.711 265.989c-4.547 42.539-36.775 75.412-76.86 82.594-48.223-8.56-82.272-53.141-76.981-102.571 4.547-42.539 36.775-75.412 76.86-82.594 48.223 8.56 82.272 53.141 76.981 102.571z" fill="#3e3d42"/>
  <path d="M217.585 291.519c-.053 8.236-6.871 14.836-15.108 14.836h-52.568c-4.174 0-7.957-1.69-10.683-4.426a15.051 15.051 0 01-4.426-10.683c0-12.903 5.978-24.471 15.303-32.078 3.788-3.09 4.691-8.515 2.284-12.77a27.2 27.2 0 01-3.525-13.434c0-15.36 12.684-27.763 28.145-27.31a26.951 26.951 0 0113.741 4.225c7.263 4.597 12.252 12.533 12.735 21.607.473 8.963-3.37 17.03-9.636 22.341a41.878 41.878 0 0117.12 15.028 41.117 41.117 0 016.618 22.664z" fill="#5aaae7"/>
  <path d="M217.585 291.519c-.053 8.236-6.871 14.836-15.108 14.836H179.08c-4.174 0-7.957-1.69-10.683-4.426a15.051 15.051 0 01-4.426-10.683c0-12.903 5.978-24.471 15.303-32.078 3.788-3.09 4.691-8.515 2.284-12.77a27.2 27.2 0 01-3.525-13.434c0-9.717 5.07-18.247 12.714-23.085 7.263 4.597 12.252 12.533 12.735 21.607.284 5.378-.986 10.433-3.401 14.764-2.412 4.326-1.632 9.791 2.206 12.923a41.938 41.938 0 018.679 9.683 41.104 41.104 0 016.619 22.663z" fill="#78b9eb"/>
  <path d="M117.986 320.004a7.543 7.543 0 00-10.657.496 7.544 7.544 0 00.496 10.657c64.423 58.695 169.971 13.58 169.971-75.273 0-39.083-22.873-75.118-58.271-91.804a7.545 7.545 0 00-6.434 13.648c32.164 15.161 53.148 49.744 49.119 87.461-7.564 70.791-92.43 102-144.224 54.815zM188.325 155.132C104.584 145.079 47.604 234.704 87.62 305.78a7.542 7.542 0 0010.276 2.873 7.544 7.544 0 002.872-10.275c-33.928-60.259 14.097-136.897 85.756-128.265a7.544 7.544 0 008.391-6.59 7.544 7.544 0 00-6.59-8.391z"/>
  <path d="M151.896 207.952c-6.821 6.626-10.578 15.51-10.578 25.018a34.804 34.804 0 005.674 19.066c-12.224 9.156-19.741 23.703-19.741 39.211 0 12.493 10.164 22.658 22.658 22.658h52.567c12.493 0 22.658-10.164 22.658-22.658 0-15.503-7.512-30.045-19.728-39.202 4.017-6.119 6.011-13.393 5.611-20.957-1.562-29.521-37.574-44.064-59.121-23.136zm58.15 83.295c0 4.173-3.395 7.569-7.569 7.569H149.91c-4.173 0-7.569-3.395-7.569-7.569 0-12.978 7.631-24.991 19.441-30.604a7.543 7.543 0 001.638-12.569 19.762 19.762 0 01-7.012-15.102c0-5.394 2.131-10.435 6.002-14.194 12.112-11.764 32.644-3.813 33.541 13.11.331 6.248-2.215 12.148-6.983 16.187a7.545 7.545 0 001.638 12.569c11.809 5.611 19.44 17.624 19.44 30.603z"/>
  <circle cx="176.192" cy="48.114" r="10.059"/>
  <circle cx="176.192" cy="85.33" r="10.059"/>
  <path d="M426.329 206.208c-25.6 0-46.744 19.424-49.48 44.3h-60.444c-1.278-32.535-13.813-63.784-35.77-88.227h32.118c4.476 22.884 24.685 40.196 48.856 40.196 27.461 0 49.792-22.331 49.792-49.792 0-27.451-22.331-49.792-49.792-49.792-25.59 0-46.744 19.424-49.48 44.3h-47.327c-9.083-7.403-18.828-13.422-28.376-17.925V38.113C236.426 17.1 219.326 0 198.303 0h-44.219C133.06 0 115.96 17.1 115.96 38.113v91.144a139.745 139.745 0 00-20.058 11.618c-3.42 2.384-4.265 7.092-1.881 10.512a7.539 7.539 0 0010.502 1.871c68.613-47.803 163.771-16 190.305 62.617 11.482 33.934 7.876 71.457-10.18 102.752-53.391 92.374-192.497 79.921-227.091-22.502-11.528-34.13-7.816-71.579 10.18-102.752a126.446 126.446 0 0115.501-21.335c2.786-3.098 2.545-7.866-.553-10.652-3.098-2.786-7.866-2.545-10.652.553a141.085 141.085 0 00-17.362 23.89c-20.158 34.925-24.323 76.891-11.407 115.125 12.613 37.338 39.871 66.296 72.696 81.779v91.154c0 21.013 17.1 38.113 38.123 38.113h44.219c21.023 0 38.123-17.1 38.123-38.113v-91.144a139.761 139.761 0 0028.799-18.277h47.528c4.476 22.884 24.685 40.195 48.856 40.195 27.461 0 49.792-22.331 49.792-49.792 0-27.451-22.331-49.792-49.792-49.792-25.59 0-46.744 19.424-49.48 44.3h-31.183c20.112-22.578 33.048-51.812 35.226-83.781h61.299c4.476 22.874 24.675 40.195 48.856 40.195 27.451 0 49.792-22.341 49.792-49.792s-22.338-49.791-49.789-49.791zm-64.719-88.227c19.142 0 34.703 15.571 34.703 34.703s-15.561 34.703-34.703 34.703c-19.132 0-34.703-15.571-34.703-34.703s15.57-34.703 34.703-34.703zm-140.272 5.161a140.456 140.456 0 00-90.098-.07c-.06.02-.131.04-.191.07V38.113c0-12.694 10.331-23.025 23.035-23.025h44.219c12.704 0 23.035 10.331 23.035 23.025v85.029zm0 350.745c0 12.694-10.331 23.025-23.035 23.025h-44.219c-12.704 0-23.035-10.331-23.035-23.025v-85.028a140.456 140.456 0 0090.098.07c.06-.02.131-.04.191-.07v85.028zM361.61 320.166c19.142 0 34.703 15.571 34.703 34.703 0 19.142-15.561 34.703-34.703 34.703-19.132 0-34.703-15.561-34.703-34.703-.001-19.132 15.57-34.703 34.703-34.703zm64.719-29.463c-19.142 0-34.703-15.571-34.703-34.703 0-19.132 15.561-34.703 34.703-34.703 19.132 0 34.703 15.571 34.703 34.703 0 19.132-15.571 34.703-34.703 34.703z"/>
  <path d="M426.325 251.557a7.545 7.545 0 00-7.544 7.544v19.783a7.545 7.545 0 0015.088 0v-19.783a7.545 7.545 0 00-7.544-7.544z"/>
  <circle cx="426.328" cy="240.489" r="7.376"/>
  <path d="M346.526 350.722h29.506a7.545 7.545 0 000-15.088h-29.506a7.545 7.545 0 000 15.088zM346.526 373.524h29.506a7.545 7.545 0 000-15.088h-29.506a7.545 7.545 0 000 15.088zM342.95 158.197a850.971 850.971 0 013.702-5.613c1.891 4.748 4.466 11.175 7.957 19.887a7.561 7.561 0 006.448 4.718c.191.01.372.02.553.02a7.56 7.56 0 006.518-3.742l8.208-14.032h10.421c4.174 0 7.544-3.38 7.544-7.544s-3.37-7.544-7.544-7.544h-14.746a7.548 7.548 0 00-6.518 3.732l-2.605 4.466c-3.38-8.47-6.528-16.356-7.142-17.975v-.01a.971.971 0 01-.03-.091.076.076 0 01-.02-.04 7.574 7.574 0 00-5.925-5.08c-4.858-.825-7.212 2.525-9.496 5.754a427.259 427.259 0 00-4.154 6.086c-2.937 4.376-5.804 8.751-5.804 8.751-2.273 3.49-1.298 8.168 2.183 10.441a7.548 7.548 0 0010.45-2.184z"/>
</svg>
