<svg xmlns="http://www.w3.org/2000/svg" viewBox="0 0 511.2 511.2">
  <path fill="#e1e6e9" d="M151.2 63.2h349.6V420H151.2z"/>
  <g fill="#f15f50">
    <circle cx="212" cy="353.6" r="31.2"/>
    <circle cx="64.8" cy="353.6" r="31.2"/>
  </g>
  <g fill="#fff">
    <path d="M151.2 420.8v60c0 13.6 10.4 24 24 24H476c13.6 0 24-10.4 24-24v-60H151.2zM500 63.2v-32c0-13.6-10.4-24-24-24H175.2c-13.6 0-24 10.4-24 24v32H500z"/>
  </g>
  <path fill="#44c4a1" d="M294.4 239.2L339.2 104H70.4v135.2z"/>
  <g fill="#193651">
    <path d="M476 0H175.2C157.6 0 144 14.4 144 31.2v65.6H76V56H3.2v14.4h59.2v216h187.2c16.8 0 29.6 13.6 29.6 29.6s-12.8 29.6-28.8 29.6c-3.2-17.6-19.2-31.2-37.6-31.2s-34.4 13.6-37.6 31.2h-72C100 328 84 314.4 65.6 314.4c-20.8 0-38.4 16.8-38.4 38.4 0 20.8 16.8 38.4 38.4 38.4 18.4 0 34.4-13.6 37.6-31.2h41.6v120c0 17.6 14.4 31.2 31.2 31.2h300.8c17.6 0 31.2-14.4 31.2-31.2V30.4c-.8-16-14.4-30.4-32-30.4zM64.8 376.8c-12.8 0-24-10.4-24-24 0-12.8 10.4-24 24-24 12.8 0 24 10.4 24 24s-11.2 24-24 24zM77.6 112h252l-40 120.8h-212V112zM212 329.6c12.8 0 24 10.4 24 24 0 12.8-10.4 24-24 24-12.8 0-24-10.4-24-24 0-12.8 11.2-24 24-24zm280.8 151.2c0 9.6-7.2 16.8-16.8 16.8H175.2c-9.6 0-16.8-7.2-16.8-16.8V428h334.4v52.8zm0-68H158.4v-52h16c3.2 17.6 19.2 31.2 37.6 31.2s34.4-13.6 37.6-31.2c24 0 43.2-20 43.2-44 0-24.8-20-44-44-44H76v-25.6h224l49.6-149.6H158.4V71.2h334.4v341.6zm0-356.8H158.4V31.2c0-9.6 7.2-16.8 16.8-16.8H476c9.6 0 16.8 7.2 16.8 16.8V56z"/>
    <path d="M236 454.4h14.4v16H236zM400.8 454.4h14.4v16h-14.4zM299.2 28H352v14.4h-52.8zM291.2 455.2h68v14.4h-68zM128.8 140.8c-4 0-7.2 3.2-7.2 7.2v47.2c0 4 3.2 7.2 7.2 7.2s7.2-3.2 7.2-7.2V148c0-4-3.2-7.2-7.2-7.2zM188.8 140.8c-4 0-7.2 3.2-7.2 7.2v47.2c0 4 3.2 7.2 7.2 7.2s7.2-3.2 7.2-7.2V148c0-4-3.2-7.2-7.2-7.2zM248.8 140.8c-4 0-7.2 3.2-7.2 7.2v47.2c0 4 3.2 7.2 7.2 7.2s7.2-3.2 7.2-7.2V148c0-4-3.2-7.2-7.2-7.2z"/>
  </g>
</svg>
