<svg height="512" width="512" xmlns="http://www.w3.org/2000/svg">
  <path d="M485.884 54.027H165.895l.002-16.333C165.897 16.909 150.491 0 131.553 0H34.316C15.394 0 0 16.909 0 37.694v336.834c0 14.392 11.716 26.101 26.116 26.101h145.555l-20.145 40.802h-16.398c-19.47 0-35.309 15.829-35.309 35.285V502c0 5.523 4.477 10 10 10H284.97c.061 0 .12-.008.18-.009.12.002.239.009.359.009h202.673C501.315 512 512 501.321 512 488.196V80.128c0-14.392-11.716-26.101-26.116-26.101zM492 211.12h-53.415a10 10 0 00-8.036 4.048l-7.018 9.474h-73.373l-7.017-9.474a10 10 0 00-8.036-4.048H281.69v-20.302c0-2.062 1.749-3.804 3.818-3.804h202.673c2.069 0 3.818 1.742 3.818 3.804v20.302zm-6.116-137.093c3.315 0 6.116 2.793 6.116 6.101v87.196a23.91 23.91 0 00-3.818-.31H285.509c-13.133 0-23.818 10.679-23.818 23.804v141.877H20v-59.134c4.361 2.208 9.208 3.45 14.316 3.45h97.236c18.922 0 34.316-16.909 34.316-37.692l.023-165.292zM20 226.302h125.871l-.002 13.017c0 9.591-6.556 17.694-14.316 17.694H34.316c-7.76 0-14.316-8.103-14.316-17.694zM61.794 20h42.309v21.782H61.794zM20 37.694C20 28.103 26.556 20 34.316 20h7.478v24.185c0 9.703 7.897 17.597 17.604 17.597h47.101c9.707 0 17.604-7.894 17.604-17.597V20h7.45c7.776 0 14.345 8.103 14.345 17.692l-.004 25.846c-.008.163-.025.324-.025.489 0 .164.017.324.025.486l-.02 141.788H20v-126.4zm0 336.834v-21.833h241.69v27.933H26.116c-3.372.001-6.116-2.736-6.116-6.1zm173.977 26.101h67.714v40.802h-87.859zm-74.158 76.086c0-8.428 6.868-15.285 15.309-15.285l22.606.002 103.957-.002v26.765c0 1.295.108 2.565.308 3.804h-142.18zM488.182 492H285.509c-2.07 0-3.818-1.742-3.818-3.804v-26.765h59.885c5.523 0 10-4.477 10-10s-4.477-10-10-10H281.69V231.12h48.378l7.017 9.474a10 10 0 008.036 4.048h83.447a10 10 0 008.036-4.048l7.018-9.474H492v210.311h-60.509c-5.523 0-10 4.477-10 10s4.477 10 10 10H492v26.765c0 2.062-1.749 3.804-3.818 3.804z"/>
  <path d="M386.519 441.431c-5.523 0-10 4.477-10 10s4.477 10 10 10h.057c5.523 0 9.972-4.477 9.972-10s-4.506-10-10.029-10z"/>
</svg>
