<svg xmlns="http://www.w3.org/2000/svg" width="512" height="512">
  <path d="M464 112h-96V96a8 8 0 00-8-8h-24V72a40.04 40.04 0 00-40-40h-16a39.8 39.8 0 00-20 5.38A39.8 39.8 0 00240 32h-16a40.04 40.04 0 00-40 40v16h-32a8 8 0 00-8 8v16H48a40.04 40.04 0 00-40 40v224a40.04 40.04 0 0040 40h156.68l-11.33 32H160a8 8 0 00-8 8v24a8 8 0 008 8h192a8 8 0 008-8v-24a8 8 0 00-8-8h-34.35l-11.33-32H464a40.04 40.04 0 0040-40V152a40.04 40.04 0 00-40-40zm-112-8v184h-32V104zm-72-56h16a24.032 24.032 0 0124 24v16h-40V72a39.807 39.807 0 00-7.22-22.89A23.912 23.912 0 01280 48zm-24 24a23.916 23.916 0 014-13.25A23.916 23.916 0 01264 72v16h-8zm-56 0a24.032 24.032 0 0124-24h16a23.912 23.912 0 017.22 1.11A39.807 39.807 0 00240 72v16h-40zm-40 32h24v16a8 8 0 0016 0v-16h64v16a8 8 0 0016 0v-16h24v184H160zm184 360v8H168v-8zm-133.68-16l11.33-32h67.7l11.33 32zM488 376a24.032 24.032 0 01-24 24H48a24.032 24.032 0 01-24-24v-8h464zm0-24H24V152a24.032 24.032 0 0124-24h96v160h-32a8 8 0 000 16h288a8 8 0 000-16h-32V128h96a24.032 24.032 0 0124 24z"/>
  <path d="M104 376H48a8 8 0 000 16h56a8 8 0 000-16zM136 376h-8a8 8 0 000 16h8a8 8 0 000-16zM328 232a8 8 0 0016 0V128a8 8 0 00-16 0zM336 248a8 8 0 00-8 8v8a8 8 0 0016 0v-8a8 8 0 00-8-8z"/>
</svg>
