<svg height="512" width="512" xmlns="http://www.w3.org/2000/svg">
  <path d="M350 502H30c-11.046 0-20-8.954-20-20V30c0-11.046 8.954-20 20-20h320c11.046 0 20 8.954 20 20v452c0 11.046-8.954 20-20 20z" fill="#6e83b7"/>
  <path d="M322 150c-17.645 0-32 14.355-32 32v300c0 7.563 2.643 14.517 7.047 20H350c11.046 0 20-8.954 20-20V150z" fill="#466089"/>
  <path d="M360 40v400H20V40z" fill="#80d6fb"/>
  <path d="M360 440V150h-38c-17.645 0-32 14.355-32 32v258z" fill="#46bee8"/>
  <path d="M210 481h-40c-5.523 0-10-4.477-10-10s4.477-10 10-10h40c5.523 0 10 4.477 10 10s-4.477 10-10 10z" fill="#466089"/>
  <path d="M258 466h40v10h-40z" fill="#edeff1"/>
  <path d="M290 466h8v10h-8z" fill="#d3d3d3"/>
  <path d="M122 476H82v-10h40z" fill="#edeff1"/>
  <circle cx="190" cy="25" fill="#466089" r="10"/>
  <circle cx="190" cy="25" fill="#80d6fb" r="7"/>
  <g>
    <path d="M482 502H322c-11.046 0-20-8.954-20-20V182c0-11.046 8.954-20 20-20h160c11.046 0 20 8.954 20 20v300c0 11.046-8.954 20-20 20z" fill="#6e83b7"/>
    <path d="M492 192v280H312V192z" fill="#80d6fb"/>
    <path d="M362 192l6 16h68l6-16z" fill="#6e83b7"/>
    <circle cx="382" cy="184" fill="#466089" r="8"/>
    <circle cx="422" cy="184" fill="#80d6fb" r="8"/>
  </g>
</svg>
