<svg height="512" viewBox="0 0 480.156 480.156" width="512" xmlns="http://www.w3.org/2000/svg">
  <path d="M400.737 372.562c-9.445 9.447-2.665 25.606 10.607 25.606 13.41 0 19.969-16.243 10.607-25.606-5.861-5.862-15.35-5.864-21.214 0zm47.377-26.163a7.998 7.998 0 010 11.313 8 8 0 01-11.313 0c-14.07-14.069-36.841-14.071-50.912 0a7.974 7.974 0 01-5.657 2.343c-7.062 0-10.712-8.602-5.657-13.657 20.321-20.321 53.215-20.324 73.539.001zm29.699-18.385a8 8 0 01-11.313 0c-30.483-30.483-79.822-30.487-110.309 0a7.999 7.999 0 01-11.313 0 7.998 7.998 0 010-11.313c36.736-36.737 96.196-36.74 132.936 0a8 8 0 01-.001 11.313zM327 365.578a8 8 0 01-8 8H32c-17.645 0-32-14.355-32-32v-281c0-17.645 14.355-32 32-32h416c17.645 0 32 14.355 32 32v195.333a8 8 0 01-16 0V60.578c0-8.822-7.178-16-16-16H32c-8.822 0-16 7.178-16 16v241.185h280a8 8 0 010 16H16v23.815c0 8.822 7.178 16 16 16h287a8 8 0 018 8zm-3 78a8 8 0 01-8 8H164a8 8 0 010-16h23.582l8.975-40.393a7.999 7.999 0 019.545-6.074 7.999 7.999 0 016.074 9.545l-8.204 36.922h72.055l-8.204-36.922a8 8 0 0115.619-3.471l8.975 40.393H316a8 8 0 018 8z"/>
</svg>
